<svg width="220" height="26" viewBox="0 0 220 26" fill="none" xmlns="http://www.w3.org/2000/svg">
<g clip-path="url(#clip0_0_514)">
<g clip-path="url(#clip1_0_514)">
<path fill-rule="evenodd" clip-rule="evenodd" d="M-0.91875 5.71691C-0.75492 4.98065 -0.352185 4.32327 0.223498 3.85242C0.79918 3.38158 1.51369 3.12519 2.25 3.12524H21.75C22.4863 3.12519 23.2008 3.38158 23.7765 3.85242C24.3522 4.32327 24.7549 4.98065 24.9187 5.71691L12 13.8152L-0.91875 5.71691ZM-1 7.62024V19.4602L8.42988 13.5302L-1 7.62024ZM9.98663 14.5086L-0.689625 21.2202C-0.425844 21.7907 -0.00951922 22.2726 0.510895 22.6099C1.03131 22.9471 1.63441 23.1258 2.25 23.1252H21.75C22.3655 23.1254 22.9684 22.9463 23.4885 22.6087C24.0086 22.2712 24.4246 21.7891 24.688 21.2186L14.0118 14.5069L12 15.7686L9.98663 14.5069V14.5086ZM15.5701 13.5319L25 19.4602V7.62024L15.5701 13.5302V13.5319Z" fill="white"/>
</g>
<path d="M38.004 18.112C37.1173 18.112 36.324 17.734 35.624 16.978C34.924 16.222 34.574 15.284 34.574 14.164C34.574 13.044 34.9147 12.1293 35.596 11.42C36.2773 10.7013 37.0753 10.342 37.99 10.342C38.9047 10.342 39.6513 10.664 40.23 11.308V7.612H42.33V18H40.23V17.006C39.642 17.7433 38.9 18.112 38.004 18.112ZM36.688 14.248C36.688 14.8547 36.87 15.354 37.234 15.746C37.598 16.1287 38.0227 16.32 38.508 16.32C38.9933 16.32 39.404 16.1287 39.74 15.746C40.0853 15.354 40.258 14.8547 40.258 14.248C40.258 13.632 40.0853 13.1233 39.74 12.722C39.404 12.3113 38.9887 12.106 38.494 12.106C37.9993 12.106 37.5747 12.3113 37.22 12.722C36.8653 13.1327 36.688 13.6413 36.688 14.248ZM51.0422 16.908C50.1929 17.7107 49.1942 18.112 48.0462 18.112C46.9076 18.112 45.9649 17.762 45.2182 17.062C44.4716 16.3527 44.0982 15.4053 44.0982 14.22C44.0982 13.0347 44.4762 12.092 45.2322 11.392C45.9976 10.692 46.8982 10.342 47.9342 10.342C48.9702 10.342 49.8476 10.6547 50.5662 11.28C51.2942 11.9053 51.6582 12.764 51.6582 13.856V14.976H46.1702C46.2356 15.3867 46.4502 15.7227 46.8142 15.984C47.1782 16.2453 47.5889 16.376 48.0462 16.376C48.7836 16.376 49.3902 16.1287 49.8662 15.634L51.0422 16.908ZM49.5302 13.478C49.4836 13.03 49.3156 12.6847 49.0262 12.442C48.7369 12.1993 48.3822 12.078 47.9622 12.078C47.5516 12.078 47.1736 12.204 46.8282 12.456C46.4829 12.708 46.2822 13.0487 46.2262 13.478H49.5302ZM57.7125 10.342C58.6272 10.342 59.4252 10.7013 60.1065 11.42C60.7878 12.1293 61.1285 13.044 61.1285 14.164C61.1285 15.284 60.7785 16.222 60.0785 16.978C59.3785 17.734 58.5805 18.112 57.6845 18.112C56.7978 18.112 56.0605 17.7433 55.4725 17.006V18H53.3725V7.612H55.4725V11.308C56.0512 10.664 56.7978 10.342 57.7125 10.342ZM55.4445 14.248C55.4445 14.8547 55.6125 15.354 55.9485 15.746C56.2938 16.1287 56.7092 16.32 57.1945 16.32C57.6798 16.32 58.1045 16.1287 58.4685 15.746C58.8325 15.354 59.0145 14.8547 59.0145 14.248C59.0145 13.6413 58.8372 13.1327 58.4825 12.722C58.1278 12.3113 57.7032 12.106 57.2085 12.106C56.7138 12.106 56.2938 12.3113 55.9485 12.722C55.6125 13.1233 55.4445 13.632 55.4445 14.248ZM66.8587 12.316C66.2334 12.316 65.7667 12.54 65.4587 12.988C65.1507 13.4267 64.9967 14.01 64.9967 14.738V18H62.8967V10.468H64.9967V11.462C65.2674 11.154 65.6034 10.8927 66.0047 10.678C66.4154 10.4633 66.8307 10.3513 67.2507 10.342L67.2647 12.316H66.8587ZM75.1822 18H73.2082V17.09C72.6669 17.7713 71.9949 18.112 71.1922 18.112C70.3989 18.112 69.7316 17.8833 69.1902 17.426C68.6489 16.9593 68.3782 16.3433 68.3782 15.578C68.3782 14.8033 68.6582 14.2247 69.2182 13.842C69.7782 13.4593 70.5436 13.268 71.5142 13.268H73.0822V13.226C73.0822 12.4233 72.6576 12.022 71.8082 12.022C71.4442 12.022 71.0569 12.0967 70.6462 12.246C70.2449 12.386 69.9042 12.5633 69.6242 12.778L68.6862 11.42C69.6756 10.7013 70.8049 10.342 72.0742 10.342C72.9889 10.342 73.7356 10.5707 74.3142 11.028C74.8929 11.4853 75.1822 12.2087 75.1822 13.198V18ZM73.0682 15.13V14.766H71.7522C70.9122 14.766 70.4922 15.0273 70.4922 15.55C70.4922 15.8207 70.5902 16.0307 70.7862 16.18C70.9916 16.32 71.2809 16.39 71.6542 16.39C72.0276 16.39 72.3542 16.278 72.6342 16.054C72.9236 15.8207 73.0682 15.5127 73.0682 15.13ZM77.4367 17.762C77.2034 17.5193 77.0867 17.2253 77.0867 16.88C77.0867 16.5347 77.2034 16.2453 77.4367 16.012C77.6794 15.7693 77.9734 15.648 78.3187 15.648C78.6641 15.648 78.9534 15.7693 79.1867 16.012C79.4294 16.2453 79.5507 16.5347 79.5507 16.88C79.5507 17.2253 79.4294 17.5193 79.1867 17.762C78.9534 17.9953 78.6641 18.112 78.3187 18.112C77.9734 18.112 77.6794 17.9953 77.4367 17.762ZM83.6299 13.94V18H81.5299V7.612H83.6299V11.308C84.2646 10.664 84.9739 10.342 85.7579 10.342C86.5513 10.342 87.2186 10.622 87.7599 11.182C88.3013 11.742 88.5719 12.4887 88.5719 13.422V18H86.4719V13.884C86.4719 12.7267 86.0473 12.148 85.1979 12.148C84.7779 12.148 84.4093 12.302 84.0919 12.61C83.7839 12.9087 83.6299 13.352 83.6299 13.94ZM92.3513 14.234C92.3513 14.85 92.524 15.354 92.8693 15.746C93.224 16.1287 93.672 16.32 94.2133 16.32C94.764 16.32 95.212 16.1287 95.5573 15.746C95.912 15.354 96.0893 14.85 96.0893 14.234C96.0893 13.618 95.912 13.114 95.5573 12.722C95.212 12.33 94.764 12.134 94.2133 12.134C93.672 12.134 93.224 12.33 92.8693 12.722C92.524 13.114 92.3513 13.618 92.3513 14.234ZM98.2033 14.234C98.2033 15.326 97.8253 16.2453 97.0693 16.992C96.3133 17.7387 95.3613 18.112 94.2133 18.112C93.0747 18.112 92.1273 17.7387 91.3713 16.992C90.6153 16.2453 90.2373 15.326 90.2373 14.234C90.2373 13.142 90.6153 12.2227 91.3713 11.476C92.1273 10.72 93.0747 10.342 94.2133 10.342C95.3613 10.342 96.3133 10.72 97.0693 11.476C97.8253 12.2227 98.2033 13.142 98.2033 14.234ZM102.063 18H99.9631V7.612H102.063V18ZM106.757 11.98V15.354C106.757 15.6433 106.832 15.872 106.981 16.04C107.13 16.1987 107.308 16.278 107.513 16.278C107.905 16.278 108.236 16.1007 108.507 15.746L109.291 17.216C108.638 17.8133 107.947 18.112 107.219 18.112C106.5 18.112 105.889 17.874 105.385 17.398C104.89 16.922 104.643 16.2733 104.643 15.452V11.98H103.761V10.468H104.643V8.214H106.757V10.468H108.577V11.98H106.757ZM119.255 16.292C119.507 16.292 119.726 16.0913 119.913 15.69C120.109 15.2887 120.207 14.7847 120.207 14.178C120.207 12.862 119.829 11.7747 119.073 10.916C118.317 10.048 117.304 9.614 116.035 9.614C114.766 9.614 113.697 10.0667 112.829 10.972C111.961 11.8773 111.527 12.9647 111.527 14.234C111.527 15.494 111.933 16.544 112.745 17.384C113.566 18.224 114.579 18.644 115.783 18.644C116.726 18.644 117.556 18.2987 118.275 17.608L118.849 18.602C118.476 18.9287 118 19.19 117.421 19.386C116.842 19.5913 116.296 19.694 115.783 19.694C114.224 19.694 112.918 19.1713 111.863 18.126C110.818 17.09 110.295 15.7927 110.295 14.234C110.295 12.666 110.846 11.3313 111.947 10.23C113.058 9.11933 114.392 8.564 115.951 8.564C117.51 8.564 118.812 9.096 119.857 10.16C120.902 11.224 121.425 12.5493 121.425 14.136C121.425 15.1627 121.21 15.9887 120.781 16.614C120.361 17.23 119.806 17.538 119.115 17.538C118.76 17.538 118.434 17.4307 118.135 17.216C117.846 17.0013 117.645 16.7307 117.533 16.404C117.02 17.0667 116.366 17.398 115.573 17.398C114.789 17.398 114.103 17.0993 113.515 16.502C112.936 15.9047 112.647 15.1487 112.647 14.234C112.647 13.31 112.908 12.5353 113.431 11.91C113.963 11.2753 114.658 10.958 115.517 10.958C115.806 10.958 116.082 11.0233 116.343 11.154C116.604 11.2753 116.791 11.3967 116.903 11.518L117.085 11.7V11.126H118.835V15.592C118.835 16.0587 118.975 16.292 119.255 16.292ZM117.099 14.178C117.099 13.7113 116.973 13.324 116.721 13.016C116.478 12.708 116.156 12.554 115.755 12.554C115.354 12.554 115.032 12.708 114.789 13.016C114.556 13.324 114.439 13.7067 114.439 14.164C114.439 14.612 114.556 15.004 114.789 15.34C115.032 15.676 115.358 15.844 115.769 15.844C116.18 15.844 116.502 15.6853 116.735 15.368C116.978 15.0413 117.099 14.6447 117.099 14.178ZM129.81 16.908C128.96 17.7107 127.962 18.112 126.814 18.112C125.675 18.112 124.732 17.762 123.986 17.062C123.239 16.3527 122.866 15.4053 122.866 14.22C122.866 13.0347 123.244 12.092 124 11.392C124.765 10.692 125.666 10.342 126.702 10.342C127.738 10.342 128.615 10.6547 129.334 11.28C130.062 11.9053 130.426 12.764 130.426 13.856V14.976H124.938C125.003 15.3867 125.218 15.7227 125.582 15.984C125.946 16.2453 126.356 16.376 126.814 16.376C127.551 16.376 128.158 16.1287 128.634 15.634L129.81 16.908ZM128.298 13.478C128.251 13.03 128.083 12.6847 127.794 12.442C127.504 12.1993 127.15 12.078 126.73 12.078C126.319 12.078 125.941 12.204 125.596 12.456C125.25 12.708 125.05 13.0487 124.994 13.478H128.298ZM133.769 10.468L135.057 12.484L136.387 10.468H138.851L136.261 14.15L138.949 18H136.443L134.973 15.928L133.545 18H131.123L133.755 14.164L131.263 10.468H133.769ZM146.586 18H144.612V17.09C144.07 17.7713 143.398 18.112 142.596 18.112C141.802 18.112 141.135 17.8833 140.594 17.426C140.052 16.9593 139.782 16.3433 139.782 15.578C139.782 14.8033 140.062 14.2247 140.622 13.842C141.182 13.4593 141.947 13.268 142.918 13.268H144.486V13.226C144.486 12.4233 144.061 12.022 143.212 12.022C142.848 12.022 142.46 12.0967 142.05 12.246C141.648 12.386 141.308 12.5633 141.028 12.778L140.09 11.42C141.079 10.7013 142.208 10.342 143.478 10.342C144.392 10.342 145.139 10.5707 145.718 11.028C146.296 11.4853 146.586 12.2087 146.586 13.198V18ZM144.472 15.13V14.766H143.156C142.316 14.766 141.896 15.0273 141.896 15.55C141.896 15.8207 141.994 16.0307 142.19 16.18C142.395 16.32 142.684 16.39 143.058 16.39C143.431 16.39 143.758 16.278 144.038 16.054C144.327 15.8207 144.472 15.5127 144.472 15.13ZM155.616 13.94V18H153.502V13.884C153.502 13.2867 153.409 12.848 153.222 12.568C153.045 12.288 152.751 12.148 152.34 12.148C151.939 12.148 151.58 12.302 151.262 12.61C150.954 12.9087 150.8 13.352 150.8 13.94V18H148.7V10.468H150.8V11.322C151.379 10.6687 152.042 10.342 152.788 10.342C153.264 10.342 153.694 10.482 154.076 10.762C154.468 11.042 154.762 11.3827 154.958 11.784C155.248 11.3267 155.635 10.972 156.12 10.72C156.615 10.468 157.11 10.342 157.604 10.342C158.491 10.342 159.205 10.608 159.746 11.14C160.288 11.6627 160.558 12.4233 160.558 13.422V18H158.444V13.884C158.444 12.7267 158.02 12.148 157.17 12.148C156.75 12.148 156.386 12.302 156.078 12.61C155.77 12.9087 155.616 13.352 155.616 13.94ZM167.05 10.342C167.927 10.342 168.706 10.7107 169.388 11.448C170.078 12.176 170.424 13.0953 170.424 14.206C170.424 15.3167 170.078 16.2453 169.388 16.992C168.706 17.7387 167.904 18.112 166.98 18.112C166.065 18.112 165.328 17.7433 164.768 17.006V20.716H162.668V10.468H164.768V11.308C165.412 10.664 166.172 10.342 167.05 10.342ZM164.74 14.248C164.74 14.8547 164.908 15.354 165.244 15.746C165.589 16.1287 166.004 16.32 166.49 16.32C166.975 16.32 167.4 16.1287 167.764 15.746C168.128 15.354 168.31 14.8547 168.31 14.248C168.31 13.6413 168.132 13.1327 167.778 12.722C167.423 12.3113 166.998 12.106 166.504 12.106C166.009 12.106 165.589 12.3113 165.244 12.722C164.908 13.1233 164.74 13.632 164.74 14.248ZM174.292 18H172.192V7.612H174.292V18ZM183.004 16.908C182.155 17.7107 181.156 18.112 180.008 18.112C178.869 18.112 177.927 17.762 177.18 17.062C176.433 16.3527 176.06 15.4053 176.06 14.22C176.06 13.0347 176.438 12.092 177.194 11.392C177.959 10.692 178.86 10.342 179.896 10.342C180.932 10.342 181.809 10.6547 182.528 11.28C183.256 11.9053 183.62 12.764 183.62 13.856V14.976H178.132C178.197 15.3867 178.412 15.7227 178.776 15.984C179.14 16.2453 179.551 16.376 180.008 16.376C180.745 16.376 181.352 16.1287 181.828 15.634L183.004 16.908ZM181.492 13.478C181.445 13.03 181.277 12.6847 180.988 12.442C180.699 12.1993 180.344 12.078 179.924 12.078C179.513 12.078 179.135 12.204 178.79 12.456C178.445 12.708 178.244 13.0487 178.188 13.478H181.492ZM185.474 17.762C185.241 17.5193 185.124 17.2253 185.124 16.88C185.124 16.5347 185.241 16.2453 185.474 16.012C185.717 15.7693 186.011 15.648 186.356 15.648C186.702 15.648 186.991 15.7693 187.224 16.012C187.467 16.2453 187.588 16.5347 187.588 16.88C187.588 17.2253 187.467 17.5193 187.224 17.762C186.991 17.9953 186.702 18.112 186.356 18.112C186.011 18.112 185.717 17.9953 185.474 17.762ZM193.179 16.25C193.879 16.25 194.509 15.9 195.069 15.2L196.315 16.6C195.345 17.608 194.295 18.112 193.165 18.112C192.036 18.112 191.079 17.7573 190.295 17.048C189.521 16.3293 189.133 15.396 189.133 14.248C189.133 13.0907 189.525 12.1527 190.309 11.434C191.103 10.706 192.041 10.342 193.123 10.342C193.665 10.342 194.211 10.454 194.761 10.678C195.321 10.902 195.811 11.2333 196.231 11.672L195.139 13.1C194.897 12.8107 194.598 12.5867 194.243 12.428C193.898 12.2693 193.553 12.19 193.207 12.19C192.657 12.19 192.181 12.372 191.779 12.736C191.387 13.0907 191.191 13.59 191.191 14.234C191.191 14.8687 191.387 15.3633 191.779 15.718C192.181 16.0727 192.647 16.25 193.179 16.25ZM199.473 14.234C199.473 14.85 199.645 15.354 199.991 15.746C200.345 16.1287 200.793 16.32 201.335 16.32C201.885 16.32 202.333 16.1287 202.679 15.746C203.033 15.354 203.211 14.85 203.211 14.234C203.211 13.618 203.033 13.114 202.679 12.722C202.333 12.33 201.885 12.134 201.335 12.134C200.793 12.134 200.345 12.33 199.991 12.722C199.645 13.114 199.473 13.618 199.473 14.234ZM205.325 14.234C205.325 15.326 204.947 16.2453 204.191 16.992C203.435 17.7387 202.483 18.112 201.335 18.112C200.196 18.112 199.249 17.7387 198.493 16.992C197.737 16.2453 197.359 15.326 197.359 14.234C197.359 13.142 197.737 12.2227 198.493 11.476C199.249 10.72 200.196 10.342 201.335 10.342C202.483 10.342 203.435 10.72 204.191 11.476C204.947 12.2227 205.325 13.142 205.325 14.234ZM214.001 13.94V18H211.887V13.884C211.887 13.2867 211.793 12.848 211.607 12.568C211.429 12.288 211.135 12.148 210.725 12.148C210.323 12.148 209.964 12.302 209.647 12.61C209.339 12.9087 209.185 13.352 209.185 13.94V18H207.085V10.468H209.185V11.322C209.763 10.6687 210.426 10.342 211.173 10.342C211.649 10.342 212.078 10.482 212.461 10.762C212.853 11.042 213.147 11.3827 213.343 11.784C213.632 11.3267 214.019 10.972 214.505 10.72C214.999 10.468 215.494 10.342 215.989 10.342C216.875 10.342 217.589 10.608 218.131 11.14C218.672 11.6627 218.943 12.4233 218.943 13.422V18H216.829V13.884C216.829 12.7267 216.404 12.148 215.555 12.148C215.135 12.148 214.771 12.302 214.463 12.61C214.155 12.9087 214.001 13.352 214.001 13.94Z" fill="white"/>
</g>
<defs>
<clipPath id="clip0_0_514">
<rect width="220" height="26" fill="white"/>
</clipPath>
<clipPath id="clip1_0_514">
<rect width="24" height="26" fill="white"/>
</clipPath>
</defs>
</svg>
