<svg width="143" height="24" viewBox="0 0 143 24" fill="none" xmlns="http://www.w3.org/2000/svg">
<g clip-path="url(#clip0_0_506)">
<path d="M18.8482 12.3517C18.7369 12.2402 18.6046 12.1517 18.459 12.0913C18.3135 12.031 18.1574 11.9999 17.9998 11.9999C17.8422 11.9999 17.6862 12.031 17.5406 12.0913C17.395 12.1517 17.2628 12.2402 17.1514 12.3517L15.2386 14.2645C14.3519 14.0005 12.6971 13.4005 11.6483 12.3517C10.5995 11.3029 9.9995 9.64814 9.7355 8.76135L11.6483 6.84857C11.7598 6.73723 11.8483 6.60498 11.9087 6.45941C11.969 6.31383 12.0001 6.15778 12.0001 6.00018C12.0001 5.84258 11.969 5.68653 11.9087 5.54095C11.8483 5.39538 11.7598 5.26313 11.6483 5.15179L6.84833 0.351838C6.73698 0.240304 6.60474 0.151819 6.45917 0.0914472C6.31359 0.031075 6.15754 0 5.99994 0C5.84234 0 5.68629 0.031075 5.54071 0.0914472C5.39513 0.151819 5.26289 0.240304 5.15155 0.351838L1.89718 3.60621C1.44118 4.0622 1.18439 4.68859 1.19399 5.32819C1.22159 7.03697 1.67398 12.9721 6.35153 17.6497C11.0291 22.3272 16.9642 22.7784 18.6742 22.8072H18.7078C19.3414 22.8072 19.9402 22.5576 20.3938 22.104L23.6482 18.8497C23.7597 18.7383 23.8482 18.6061 23.9086 18.4605C23.9689 18.3149 24 18.1589 24 18.0013C24 17.8437 23.9689 17.6876 23.9086 17.542C23.8482 17.3965 23.7597 17.2642 23.6482 17.1529L18.8482 12.3517ZM18.6958 20.406C17.1982 20.3808 12.0743 19.9788 8.04832 15.9517C4.00916 11.9125 3.61796 6.77057 3.59396 5.30299L5.99994 2.89701L9.10311 6.00018L7.55152 7.55177C7.41048 7.6927 7.30678 7.86657 7.24979 8.05764C7.1928 8.24872 7.18432 8.45098 7.22513 8.64615C7.25392 8.78415 7.95832 12.0565 9.9503 14.0485C11.9423 16.0405 15.2146 16.7449 15.3526 16.7737C15.5477 16.8156 15.7502 16.8078 15.9414 16.751C16.1327 16.6942 16.3065 16.5901 16.447 16.4485L17.9998 14.8969L21.103 18.0001L18.6958 20.406Z" fill="white"/>
<path d="M38.718 6.444C38.158 7.24667 37.682 8.22667 37.29 9.384C36.9073 10.532 36.716 11.61 36.716 12.618C36.716 13.6167 36.9073 14.6947 37.29 15.852C37.682 17.0093 38.158 17.9847 38.718 18.778H36.45C35.9927 18.134 35.5727 17.2287 35.19 16.062C34.8167 14.886 34.63 13.738 34.63 12.618C34.63 11.498 34.8167 10.35 35.19 9.174C35.5727 7.998 35.9927 7.088 36.45 6.444H38.718ZM43.3958 12.772V11.064H45.4958V12.772H46.6018V14.662H45.4958V17H43.3958V14.662H39.4618V12.996L42.9478 7.214H45.3278L42.0098 12.772H43.3958ZM49.4463 7.76C50.0996 7.24667 50.9116 6.99 51.8823 6.99C52.8529 6.99 53.6603 7.24667 54.3043 7.76C54.9483 8.27333 55.2703 8.908 55.2703 9.664C55.2703 10.4107 54.9809 11.0547 54.4023 11.596C55.2143 12.2213 55.6203 13.0427 55.6203 14.06C55.6203 14.9187 55.2749 15.642 54.5843 16.23C53.8936 16.818 52.9929 17.112 51.8823 17.112C50.7716 17.112 49.8709 16.818 49.1803 16.23C48.4896 15.642 48.1443 14.9187 48.1443 14.06C48.1443 13.0427 48.5503 12.2213 49.3623 11.596C48.7743 11.0453 48.4803 10.3967 48.4803 9.65C48.4803 8.90333 48.8023 8.27333 49.4463 7.76ZM50.8183 14.97C51.1449 15.1847 51.4996 15.292 51.8823 15.292C52.2649 15.292 52.6196 15.1847 52.9463 14.97C53.2729 14.746 53.4363 14.424 53.4363 14.004C53.4363 13.584 53.2776 13.262 52.9603 13.038C52.6429 12.814 52.2836 12.702 51.8823 12.702C51.4809 12.702 51.1216 12.814 50.8043 13.038C50.4869 13.262 50.3283 13.584 50.3283 14.004C50.3283 14.424 50.4916 14.746 50.8183 14.97ZM50.9443 10.686C51.2149 10.91 51.5276 11.022 51.8823 11.022C52.2369 11.022 52.5449 10.91 52.8063 10.686C53.0769 10.462 53.2123 10.1867 53.2123 9.86C53.2123 9.524 53.0816 9.244 52.8203 9.02C52.5589 8.796 52.2463 8.684 51.8823 8.684C51.5183 8.684 51.2056 8.796 50.9443 9.02C50.6829 9.244 50.5523 9.524 50.5523 9.86C50.5523 10.1867 50.6829 10.462 50.9443 10.686ZM59.9587 9.692C59.6507 10.2893 59.4967 11.078 59.4967 12.058C59.4967 13.038 59.6507 13.8267 59.9587 14.424C60.2667 15.0213 60.7474 15.32 61.4007 15.32C62.054 15.32 62.5347 15.0213 62.8427 14.424C63.1507 13.8267 63.3047 13.038 63.3047 12.058C63.3047 11.078 63.1507 10.2893 62.8427 9.692C62.5347 9.09467 62.054 8.796 61.4007 8.796C60.7474 8.796 60.2667 9.09467 59.9587 9.692ZM61.4007 17.112C60.0474 17.112 59.0347 16.6547 58.3627 15.74C57.6907 14.816 57.3547 13.5887 57.3547 12.058C57.3547 10.518 57.6907 9.29067 58.3627 8.376C59.0347 7.452 60.0474 6.99 61.4007 6.99C62.754 6.99 63.7667 7.452 64.4387 8.376C65.1107 9.29067 65.4467 10.518 65.4467 12.058C65.4467 13.5887 65.1107 14.816 64.4387 15.74C63.7667 16.6547 62.754 17.112 61.4007 17.112ZM66.7867 18.778C67.3467 17.9847 67.8181 17.0093 68.2007 15.852C68.5927 14.6947 68.7887 13.6167 68.7887 12.618C68.7887 11.61 68.5927 10.532 68.2007 9.384C67.8181 8.22667 67.3467 7.24667 66.7867 6.444H69.0547C69.5121 7.088 69.9274 7.998 70.3007 9.174C70.6834 10.35 70.8747 11.498 70.8747 12.618C70.8747 13.738 70.6834 14.886 70.3007 16.062C69.9274 17.2287 69.5121 18.134 69.0547 18.778H66.7867ZM82.6844 7.214V9.104H78.8204V10.742C79.1097 10.658 79.4411 10.616 79.8144 10.616C80.7571 10.616 81.5691 10.9007 82.2504 11.47C82.9317 12.0393 83.2724 12.8093 83.2724 13.78C83.2724 14.7413 82.9177 15.5393 82.2084 16.174C81.5084 16.7993 80.6404 17.112 79.6044 17.112C78.2791 17.112 77.1731 16.622 76.2864 15.642L77.4344 14.046C77.5184 14.13 77.6304 14.2327 77.7704 14.354C77.9104 14.4753 78.1671 14.6387 78.5404 14.844C78.9137 15.04 79.2871 15.138 79.6604 15.138C80.0337 15.138 80.3651 15.026 80.6544 14.802C80.9437 14.578 81.0884 14.2467 81.0884 13.808C81.0884 13.3693 80.9297 13.0333 80.6124 12.8C80.3044 12.5573 79.9031 12.436 79.4084 12.436C78.9137 12.436 78.3397 12.6133 77.6864 12.968L76.7764 11.988V7.214H82.6844ZM91.2242 7.214V9.104H87.3602V10.742C87.6496 10.658 87.9809 10.616 88.3542 10.616C89.2969 10.616 90.1089 10.9007 90.7902 11.47C91.4716 12.0393 91.8122 12.8093 91.8122 13.78C91.8122 14.7413 91.4576 15.5393 90.7482 16.174C90.0482 16.7993 89.1802 17.112 88.1442 17.112C86.8189 17.112 85.7129 16.622 84.8262 15.642L85.9742 14.046C86.0582 14.13 86.1702 14.2327 86.3102 14.354C86.4502 14.4753 86.7069 14.6387 87.0802 14.844C87.4536 15.04 87.8269 15.138 88.2002 15.138C88.5736 15.138 88.9049 15.026 89.1942 14.802C89.4836 14.578 89.6282 14.2467 89.6282 13.808C89.6282 13.3693 89.4696 13.0333 89.1522 12.8C88.8442 12.5573 88.4429 12.436 87.9482 12.436C87.4536 12.436 86.8796 12.6133 86.2262 12.968L85.3162 11.988V7.214H91.2242ZM99.7641 7.214V9.104H95.9001V10.742C96.1894 10.658 96.5207 10.616 96.8941 10.616C97.8367 10.616 98.6487 10.9007 99.3301 11.47C100.011 12.0393 100.352 12.8093 100.352 13.78C100.352 14.7413 99.9974 15.5393 99.2881 16.174C98.5881 16.7993 97.7201 17.112 96.6841 17.112C95.3587 17.112 94.2527 16.622 93.3661 15.642L94.5141 14.046C94.5981 14.13 94.7101 14.2327 94.8501 14.354C94.9901 14.4753 95.2467 14.6387 95.6201 14.844C95.9934 15.04 96.3667 15.138 96.7401 15.138C97.1134 15.138 97.4447 15.026 97.7341 14.802C98.0234 14.578 98.1681 14.2467 98.1681 13.808C98.1681 13.3693 98.0094 13.0333 97.6921 12.8C97.3841 12.5573 96.9827 12.436 96.4881 12.436C95.9934 12.436 95.4194 12.6133 94.7661 12.968L93.8561 11.988V7.214H99.7641ZM102.158 13.724V11.862H107.142V13.724H102.158ZM111.671 9.692C111.363 10.2893 111.209 11.078 111.209 12.058C111.209 13.038 111.363 13.8267 111.671 14.424C111.979 15.0213 112.46 15.32 113.113 15.32C113.767 15.32 114.247 15.0213 114.555 14.424C114.863 13.8267 115.017 13.038 115.017 12.058C115.017 11.078 114.863 10.2893 114.555 9.692C114.247 9.09467 113.767 8.796 113.113 8.796C112.46 8.796 111.979 9.09467 111.671 9.692ZM113.113 17.112C111.76 17.112 110.747 16.6547 110.075 15.74C109.403 14.816 109.067 13.5887 109.067 12.058C109.067 10.518 109.403 9.29067 110.075 8.376C110.747 7.452 111.76 6.99 113.113 6.99C114.467 6.99 115.479 7.452 116.151 8.376C116.823 9.29067 117.159 10.518 117.159 12.058C117.159 13.5887 116.823 14.816 116.151 15.74C115.479 16.6547 114.467 17.112 113.113 17.112ZM118.583 7.214H122.545V17H120.445V9.076H118.583V7.214ZM127.384 9.692C127.076 10.2893 126.922 11.078 126.922 12.058C126.922 13.038 127.076 13.8267 127.384 14.424C127.692 15.0213 128.172 15.32 128.826 15.32C129.479 15.32 129.96 15.0213 130.268 14.424C130.576 13.8267 130.73 13.038 130.73 12.058C130.73 11.078 130.576 10.2893 130.268 9.692C129.96 9.09467 129.479 8.796 128.826 8.796C128.172 8.796 127.692 9.09467 127.384 9.692ZM128.826 17.112C127.472 17.112 126.46 16.6547 125.788 15.74C125.116 14.816 124.78 13.5887 124.78 12.058C124.78 10.518 125.116 9.29067 125.788 8.376C126.46 7.452 127.472 6.99 128.826 6.99C130.179 6.99 131.192 7.452 131.864 8.376C132.536 9.29067 132.872 10.518 132.872 12.058C132.872 13.5887 132.536 14.816 131.864 15.74C131.192 16.6547 130.179 17.112 128.826 17.112ZM134.912 9.076V7.214H140.904V8.726L138.902 11.008C139.686 11.1387 140.292 11.47 140.722 12.002C141.151 12.5247 141.366 13.1313 141.366 13.822C141.366 14.8487 141.016 15.656 140.316 16.244C139.625 16.8227 138.738 17.112 137.656 17.112C136.573 17.112 135.476 16.7293 134.366 15.964L135.262 14.228C136.186 14.8813 137.012 15.208 137.74 15.208C138.178 15.208 138.538 15.1007 138.818 14.886C139.107 14.6713 139.252 14.3633 139.252 13.962C139.252 13.5513 139.088 13.2293 138.762 12.996C138.435 12.7533 137.982 12.632 137.404 12.632C137.096 12.632 136.662 12.7207 136.102 12.898V11.288L137.978 9.076H134.912Z" fill="white"/>
</g>
<defs>
<clipPath id="clip0_0_506">
<rect width="143" height="24" fill="white"/>
</clipPath>
</defs>
</svg>
