<svg width="290" height="48" viewBox="0 0 290 48" fill="none" xmlns="http://www.w3.org/2000/svg">
<g clip-path="url(#clip0_0_510)">
<g clip-path="url(#clip1_0_510)">
<path d="M12 27.0001C15.3089 27.0001 17.9999 24.3091 17.9999 21.0001C17.9999 17.6912 15.3089 15.0002 12 15.0002C8.69101 15.0002 6.00004 17.6912 6.00004 21.0001C6.00004 24.3091 8.69101 27.0001 12 27.0001ZM12 18.0002C13.6545 18.0002 14.9999 19.3456 14.9999 21.0001C14.9999 22.6546 13.6545 24.0001 12 24.0001C10.3455 24.0001 9.00001 22.6546 9.00001 21.0001C9.00001 19.3456 10.3455 18.0002 12 18.0002ZM11.13 38.7209C11.3839 38.9022 11.688 38.9997 12 38.9997C12.312 38.9997 12.6161 38.9022 12.87 38.7209C13.326 38.3984 24.0434 30.66 23.9999 21.0001C23.9999 14.3837 18.6164 9.00024 12 9.00024C5.38357 9.00024 0.000132055 14.3837 0.000132055 20.9926C-0.0433675 30.66 10.674 38.3984 11.13 38.7209ZM12 12.0002C16.9634 12.0002 20.9999 16.0367 20.9999 21.0076C21.0314 27.6645 14.418 33.642 12 35.6025C9.58353 33.6405 2.9686 27.6615 3.0001 21.0001C3.0001 16.0367 7.03655 12.0002 12 12.0002ZM12 27.0001C15.3089 27.0001 17.9999 24.3091 17.9999 21.0001C17.9999 17.6912 15.3089 15.0002 12 15.0002C8.69101 15.0002 6.00004 17.6912 6.00004 21.0001C6.00004 24.3091 8.69101 27.0001 12 27.0001ZM12 18.0002C13.6545 18.0002 14.9999 19.3456 14.9999 21.0001C14.9999 22.6546 13.6545 24.0001 12 24.0001C10.3455 24.0001 9.00001 22.6546 9.00001 21.0001C9.00001 19.3456 10.3455 18.0002 12 18.0002ZM11.13 38.7209C11.3839 38.9022 11.688 38.9997 12 38.9997C12.312 38.9997 12.6161 38.9022 12.87 38.7209C13.326 38.3984 24.0434 30.66 23.9999 21.0001C23.9999 14.3837 18.6164 9.00024 12 9.00024C5.38357 9.00024 0.000132055 14.3837 0.000132055 20.9926C-0.0433675 30.66 10.674 38.3984 11.13 38.7209ZM12 12.0002C16.9634 12.0002 20.9999 16.0367 20.9999 21.0076C21.0314 27.6645 14.418 33.642 12 35.6025C9.58353 33.6405 2.9686 27.6615 3.0001 21.0001C3.0001 16.0367 7.03655 12.0002 12 12.0002Z" fill="white"/>
<path d="M12 27.0001C15.3089 27.0001 17.9999 24.3091 17.9999 21.0001C17.9999 17.6912 15.3089 15.0002 12 15.0002C8.69101 15.0002 6.00004 17.6912 6.00004 21.0001C6.00004 24.3091 8.69101 27.0001 12 27.0001ZM12 18.0002C13.6545 18.0002 14.9999 19.3456 14.9999 21.0001C14.9999 22.6546 13.6545 24.0001 12 24.0001C10.3455 24.0001 9.00001 22.6546 9.00001 21.0001C9.00001 19.3456 10.3455 18.0002 12 18.0002ZM11.13 38.7209C11.3839 38.9022 11.688 38.9997 12 38.9997C12.312 38.9997 12.6161 38.9022 12.87 38.7209C13.326 38.3984 24.0434 30.66 23.9999 21.0001C23.9999 14.3837 18.6164 9.00024 12 9.00024C5.38357 9.00024 0.000132055 14.3837 0.000132055 20.9926C-0.0433675 30.66 10.674 38.3984 11.13 38.7209ZM12 12.0002C16.9634 12.0002 20.9999 16.0367 20.9999 21.0076C21.0314 27.6645 14.418 33.642 12 35.6025C9.58353 33.6405 2.9686 27.6615 3.0001 21.0001C3.0001 16.0367 7.03655 12.0002 12 12.0002ZM12 27.0001C15.3089 27.0001 17.9999 24.3091 17.9999 21.0001C17.9999 17.6912 15.3089 15.0002 12 15.0002C8.69101 15.0002 6.00004 17.6912 6.00004 21.0001C6.00004 24.3091 8.69101 27.0001 12 27.0001ZM12 18.0002C13.6545 18.0002 14.9999 19.3456 14.9999 21.0001C14.9999 22.6546 13.6545 24.0001 12 24.0001C10.3455 24.0001 9.00001 22.6546 9.00001 21.0001C9.00001 19.3456 10.3455 18.0002 12 18.0002ZM11.13 38.7209C11.3839 38.9022 11.688 38.9997 12 38.9997C12.312 38.9997 12.6161 38.9022 12.87 38.7209C13.326 38.3984 24.0434 30.66 23.9999 21.0001C23.9999 14.3837 18.6164 9.00024 12 9.00024C5.38357 9.00024 0.000132055 14.3837 0.000132055 20.9926C-0.0433675 30.66 10.674 38.3984 11.13 38.7209ZM12 12.0002C16.9634 12.0002 20.9999 16.0367 20.9999 21.0076C21.0314 27.6645 14.418 33.642 12 35.6025C9.58353 33.6405 2.9686 27.6615 3.0001 21.0001C3.0001 16.0367 7.03655 12.0002 12 12.0002Z" fill="white"/>
</g>
<path d="M38.438 12.772V11.064H40.538V12.772H41.644V14.662H40.538V17H38.438V14.662H34.504V12.996L37.99 7.214H40.37L37.052 12.772H38.438ZM49.5145 7.214V9.104H45.6505V10.742C45.9398 10.658 46.2711 10.616 46.6445 10.616C47.5871 10.616 48.3991 10.9007 49.0805 11.47C49.7618 12.0393 50.1025 12.8093 50.1025 13.78C50.1025 14.7413 49.7478 15.5393 49.0385 16.174C48.3385 16.7993 47.4705 17.112 46.4345 17.112C45.1091 17.112 44.0031 16.622 43.1165 15.642L44.2645 14.046C44.3485 14.13 44.4605 14.2327 44.6005 14.354C44.7405 14.4753 44.9971 14.6387 45.3705 14.844C45.7438 15.04 46.1171 15.138 46.4905 15.138C46.8638 15.138 47.1951 15.026 47.4845 14.802C47.7738 14.578 47.9185 14.2467 47.9185 13.808C47.9185 13.3693 47.7598 13.0333 47.4425 12.8C47.1345 12.5573 46.7331 12.436 46.2385 12.436C45.7438 12.436 45.1698 12.6133 44.5165 12.968L43.6065 11.988V7.214H49.5145ZM51.4043 7.214H55.3663V17H53.2663V9.076H51.4043V7.214ZM57.4748 10.35V7.214H64.5448V8.866L60.5828 17H58.2028L61.9828 9.09H59.5188V10.35H57.4748ZM73.2716 12.842L75.0076 7.214H77.2896L79.0116 12.842L80.9576 7.214H83.3236L79.9076 17H78.2836L76.1416 10.196L74.0136 17H72.3896L68.9736 7.214H71.3396L73.2716 12.842ZM90.3889 17H88.4149V16.09C87.8735 16.7713 87.2015 17.112 86.3989 17.112C85.6055 17.112 84.9382 16.8833 84.3969 16.426C83.8555 15.9593 83.5849 15.3433 83.5849 14.578C83.5849 13.8033 83.8649 13.2247 84.4249 12.842C84.9849 12.4593 85.7502 12.268 86.7209 12.268H88.2889V12.226C88.2889 11.4233 87.8642 11.022 87.0149 11.022C86.6509 11.022 86.2635 11.0967 85.8529 11.246C85.4515 11.386 85.1109 11.5633 84.8309 11.778L83.8929 10.42C84.8822 9.70133 86.0115 9.342 87.2809 9.342C88.1955 9.342 88.9422 9.57067 89.5209 10.028C90.0995 10.4853 90.3889 11.2087 90.3889 12.198V17ZM88.2749 14.13V13.766H86.9589C86.1189 13.766 85.6989 14.0273 85.6989 14.55C85.6989 14.8207 85.7969 15.0307 85.9929 15.18C86.1982 15.32 86.4875 15.39 86.8609 15.39C87.2342 15.39 87.5609 15.278 87.8409 15.054C88.1302 14.8207 88.2749 14.5127 88.2749 14.13ZM98.1734 14.662C98.1734 15.3993 97.898 15.992 97.3474 16.44C96.806 16.888 96.1154 17.112 95.2754 17.112C94.7154 17.112 94.132 17.014 93.5254 16.818C92.9187 16.6127 92.3727 16.314 91.8874 15.922L92.8114 14.606C93.5954 15.2127 94.4307 15.516 95.3174 15.516C95.588 15.516 95.8027 15.4647 95.9614 15.362C96.12 15.25 96.1994 15.1053 96.1994 14.928C96.1994 14.7507 96.0874 14.5873 95.8634 14.438C95.6487 14.2887 95.3314 14.1487 94.9114 14.018C94.5007 13.8873 94.1834 13.7753 93.9594 13.682C93.7447 13.5887 93.4974 13.4533 93.2174 13.276C92.648 12.9213 92.3634 12.3987 92.3634 11.708C92.3634 11.008 92.6434 10.4387 93.2034 10C93.7634 9.56133 94.4867 9.342 95.3734 9.342C96.26 9.342 97.1467 9.64067 98.0334 10.238L97.2494 11.638C96.596 11.19 95.9427 10.966 95.2894 10.966C94.6454 10.966 94.3234 11.1433 94.3234 11.498C94.3234 11.694 94.426 11.848 94.6314 11.96C94.8367 12.072 95.1774 12.2027 95.6534 12.352C96.1294 12.5013 96.4654 12.618 96.6614 12.702C96.8667 12.7767 97.1094 12.898 97.3894 13.066C97.912 13.3833 98.1734 13.9153 98.1734 14.662ZM102.077 12.94V17H99.9768V6.612H102.077V10.308C102.711 9.664 103.421 9.342 104.205 9.342C104.998 9.342 105.665 9.622 106.207 10.182C106.748 10.742 107.019 11.4887 107.019 12.422V17H104.919V12.884C104.919 11.7267 104.494 11.148 103.645 11.148C103.225 11.148 102.856 11.302 102.539 11.61C102.231 11.9087 102.077 12.352 102.077 12.94ZM111.218 17H109.118V9.468H111.218V17ZM109.286 8.516C109.053 8.27333 108.936 7.97933 108.936 7.634C108.936 7.28867 109.053 6.99933 109.286 6.766C109.529 6.52333 109.823 6.402 110.168 6.402C110.514 6.402 110.803 6.52333 111.036 6.766C111.279 6.99933 111.4 7.28867 111.4 7.634C111.4 7.97933 111.279 8.27333 111.036 8.516C110.803 8.74933 110.514 8.866 110.168 8.866C109.823 8.866 109.529 8.74933 109.286 8.516ZM115.506 12.8V17H113.406V9.468H115.506V10.308C116.141 9.664 116.855 9.342 117.648 9.342C118.441 9.342 119.104 9.622 119.636 10.182C120.177 10.742 120.448 11.4887 120.448 12.422V17H118.348V12.744C118.348 11.5867 117.923 11.008 117.074 11.008C116.654 11.008 116.285 11.162 115.968 11.47C115.66 11.7687 115.506 12.212 115.506 12.8ZM127.826 13.08C127.826 12.4733 127.658 11.9973 127.322 11.652C126.986 11.3067 126.57 11.134 126.076 11.134C125.581 11.134 125.152 11.3067 124.788 11.652C124.433 11.9973 124.256 12.4687 124.256 13.066C124.256 13.6633 124.428 14.1487 124.774 14.522C125.128 14.886 125.558 15.068 126.062 15.068C126.566 15.068 126.986 14.886 127.322 14.522C127.658 14.158 127.826 13.6773 127.826 13.08ZM128.12 15.726C127.457 16.4633 126.631 16.832 125.642 16.832C124.662 16.832 123.831 16.5007 123.15 15.838C122.478 15.166 122.142 14.2747 122.142 13.164C122.142 12.044 122.487 11.1293 123.178 10.42C123.878 9.70133 124.676 9.342 125.572 9.342C126.468 9.342 127.21 9.71067 127.798 10.448V9.454H129.898V16.02C129.898 16.692 129.781 17.2893 129.548 17.812C129.314 18.3347 129.002 18.7453 128.61 19.044C127.835 19.66 126.92 19.968 125.866 19.968C125.306 19.968 124.732 19.8747 124.144 19.688C123.565 19.5107 123.056 19.254 122.618 18.918L123.43 17.336C124.12 17.8587 124.848 18.12 125.614 18.12C126.388 18.12 127 17.9287 127.448 17.546C127.896 17.1633 128.12 16.5567 128.12 15.726ZM134.591 10.98V14.354C134.591 14.6433 134.666 14.872 134.815 15.04C134.965 15.1987 135.142 15.278 135.347 15.278C135.739 15.278 136.071 15.1007 136.341 14.746L137.125 16.216C136.472 16.8133 135.781 17.112 135.053 17.112C134.335 17.112 133.723 16.874 133.219 16.398C132.725 15.922 132.477 15.2733 132.477 14.452V10.98H131.595V9.468H132.477V7.214H134.591V9.468H136.411V10.98H134.591ZM140.049 13.234C140.049 13.85 140.222 14.354 140.567 14.746C140.922 15.1287 141.37 15.32 141.911 15.32C142.462 15.32 142.91 15.1287 143.255 14.746C143.61 14.354 143.787 13.85 143.787 13.234C143.787 12.618 143.61 12.114 143.255 11.722C142.91 11.33 142.462 11.134 141.911 11.134C141.37 11.134 140.922 11.33 140.567 11.722C140.222 12.114 140.049 12.618 140.049 13.234ZM145.901 13.234C145.901 14.326 145.523 15.2453 144.767 15.992C144.011 16.7387 143.059 17.112 141.911 17.112C140.773 17.112 139.825 16.7387 139.069 15.992C138.313 15.2453 137.935 14.326 137.935 13.234C137.935 12.142 138.313 11.2227 139.069 10.476C139.825 9.72 140.773 9.342 141.911 9.342C143.059 9.342 144.011 9.72 144.767 10.476C145.523 11.2227 145.901 12.142 145.901 13.234ZM149.761 12.8V17H147.661V9.468H149.761V10.308C150.396 9.664 151.11 9.342 151.903 9.342C152.697 9.342 153.359 9.622 153.891 10.182C154.433 10.742 154.703 11.4887 154.703 12.422V17H152.603V12.744C152.603 11.5867 152.179 11.008 151.329 11.008C150.909 11.008 150.541 11.162 150.223 11.47C149.915 11.7687 149.761 12.212 149.761 12.8ZM167.876 17L166.966 14.886H162.864L161.954 17H159.63L163.858 7.214H165.972L170.2 17H167.876ZM164.922 10.126L163.69 12.968H166.14L164.922 10.126ZM172.918 17L169.936 9.454H172.12L173.996 14.2L175.872 9.454H178.056L175.074 17H172.918ZM185.815 15.908C184.966 16.7107 183.967 17.112 182.819 17.112C181.681 17.112 180.738 16.762 179.991 16.062C179.245 15.3527 178.871 14.4053 178.871 13.22C178.871 12.0347 179.249 11.092 180.005 10.392C180.771 9.692 181.671 9.342 182.707 9.342C183.743 9.342 184.621 9.65467 185.339 10.28C186.067 10.9053 186.431 11.764 186.431 12.856V13.976H180.943C181.009 14.3867 181.223 14.7227 181.587 14.984C181.951 15.2453 182.362 15.376 182.819 15.376C183.557 15.376 184.163 15.1287 184.639 14.634L185.815 15.908ZM184.303 12.478C184.257 12.03 184.089 11.6847 183.799 11.442C183.51 11.1993 183.155 11.078 182.735 11.078C182.325 11.078 181.947 11.204 181.601 11.456C181.256 11.708 181.055 12.0487 180.999 12.478H184.303ZM188.286 16.762C188.052 16.5193 187.936 16.2253 187.936 15.88C187.936 15.5347 188.052 15.2453 188.286 15.012C188.528 14.7693 188.822 14.648 189.168 14.648C189.513 14.648 189.802 14.7693 190.036 15.012C190.278 15.2453 190.4 15.5347 190.4 15.88C190.4 16.2253 190.278 16.5193 190.036 16.762C189.802 16.9953 189.513 17.112 189.168 17.112C188.822 17.112 188.528 16.9953 188.286 16.762ZM205.244 10.84L202.598 16.188H201.296L198.664 10.84V17H196.48V7.214H199.434L201.954 12.59L204.488 7.214H207.428V17H205.244V10.84ZM216.226 17H214.252V16.09C213.71 16.7713 213.038 17.112 212.236 17.112C211.442 17.112 210.775 16.8833 210.234 16.426C209.692 15.9593 209.422 15.3433 209.422 14.578C209.422 13.8033 209.702 13.2247 210.262 12.842C210.822 12.4593 211.587 12.268 212.558 12.268H214.126V12.226C214.126 11.4233 213.701 11.022 212.852 11.022C212.488 11.022 212.1 11.0967 211.69 11.246C211.288 11.386 210.948 11.5633 210.668 11.778L209.73 10.42C210.719 9.70133 211.848 9.342 213.118 9.342C214.032 9.342 214.779 9.57067 215.358 10.028C215.936 10.4853 216.226 11.2087 216.226 12.198V17ZM214.112 14.13V13.766H212.796C211.956 13.766 211.536 14.0273 211.536 14.55C211.536 14.8207 211.634 15.0307 211.83 15.18C212.035 15.32 212.324 15.39 212.698 15.39C213.071 15.39 213.398 15.278 213.678 15.054C213.967 14.8207 214.112 14.5127 214.112 14.13ZM220.44 12.8V17H218.34V9.468H220.44V10.308C221.075 9.664 221.789 9.342 222.582 9.342C223.375 9.342 224.038 9.622 224.57 10.182C225.111 10.742 225.382 11.4887 225.382 12.422V17H223.282V12.744C223.282 11.5867 222.857 11.008 222.008 11.008C221.588 11.008 221.219 11.162 220.902 11.47C220.594 11.7687 220.44 12.212 220.44 12.8ZM231.094 15.25C231.794 15.25 232.424 14.9 232.984 14.2L234.23 15.6C233.259 16.608 232.209 17.112 231.08 17.112C229.95 17.112 228.994 16.7573 228.21 16.048C227.435 15.3293 227.048 14.396 227.048 13.248C227.048 12.0907 227.44 11.1527 228.224 10.434C229.017 9.706 229.955 9.342 231.038 9.342C231.579 9.342 232.125 9.454 232.676 9.678C233.236 9.902 233.726 10.2333 234.146 10.672L233.054 12.1C232.811 11.8107 232.512 11.5867 232.158 11.428C231.812 11.2693 231.467 11.19 231.122 11.19C230.571 11.19 230.095 11.372 229.694 11.736C229.302 12.0907 229.106 12.59 229.106 13.234C229.106 13.8687 229.302 14.3633 229.694 14.718C230.095 15.0727 230.562 15.25 231.094 15.25ZM237.93 12.94V17H235.83V6.612H237.93V10.308C238.565 9.664 239.274 9.342 240.058 9.342C240.851 9.342 241.519 9.622 242.06 10.182C242.601 10.742 242.872 11.4887 242.872 12.422V17H240.772V12.884C240.772 11.7267 240.347 11.148 239.498 11.148C239.078 11.148 238.709 11.302 238.392 11.61C238.084 11.9087 237.93 12.352 237.93 12.94ZM251.495 15.908C250.646 16.7107 249.647 17.112 248.499 17.112C247.361 17.112 246.418 16.762 245.671 16.062C244.925 15.3527 244.551 14.4053 244.551 13.22C244.551 12.0347 244.929 11.092 245.685 10.392C246.451 9.692 247.351 9.342 248.387 9.342C249.423 9.342 250.301 9.65467 251.019 10.28C251.747 10.9053 252.111 11.764 252.111 12.856V13.976H246.623C246.689 14.3867 246.903 14.7227 247.267 14.984C247.631 15.2453 248.042 15.376 248.499 15.376C249.237 15.376 249.843 15.1287 250.319 14.634L251.495 15.908ZM249.983 12.478C249.937 12.03 249.769 11.6847 249.479 11.442C249.19 11.1993 248.835 11.078 248.415 11.078C248.005 11.078 247.627 11.204 247.281 11.456C246.936 11.708 246.735 12.0487 246.679 12.478H249.983ZM259.496 14.662C259.496 15.3993 259.22 15.992 258.67 16.44C258.128 16.888 257.438 17.112 256.598 17.112C256.038 17.112 255.454 17.014 254.848 16.818C254.241 16.6127 253.695 16.314 253.21 15.922L254.134 14.606C254.918 15.2127 255.753 15.516 256.64 15.516C256.91 15.516 257.125 15.4647 257.284 15.362C257.442 15.25 257.522 15.1053 257.522 14.928C257.522 14.7507 257.41 14.5873 257.186 14.438C256.971 14.2887 256.654 14.1487 256.234 14.018C255.823 13.8873 255.506 13.7753 255.282 13.682C255.067 13.5887 254.82 13.4533 254.54 13.276C253.97 12.9213 253.686 12.3987 253.686 11.708C253.686 11.008 253.966 10.4387 254.526 10C255.086 9.56133 255.809 9.342 256.696 9.342C257.582 9.342 258.469 9.64067 259.356 10.238L258.572 11.638C257.918 11.19 257.265 10.966 256.612 10.966C255.968 10.966 255.646 11.1433 255.646 11.498C255.646 11.694 255.748 11.848 255.954 11.96C256.159 12.072 256.5 12.2027 256.976 12.352C257.452 12.5013 257.788 12.618 257.984 12.702C258.189 12.7767 258.432 12.898 258.712 13.066C259.234 13.3833 259.496 13.9153 259.496 14.662ZM263.75 10.98V14.354C263.75 14.6433 263.825 14.872 263.974 15.04C264.124 15.1987 264.301 15.278 264.506 15.278C264.898 15.278 265.23 15.1007 265.5 14.746L266.284 16.216C265.631 16.8133 264.94 17.112 264.212 17.112C263.494 17.112 262.882 16.874 262.378 16.398C261.884 15.922 261.636 15.2733 261.636 14.452V10.98H260.754V9.468H261.636V7.214H263.75V9.468H265.57V10.98H263.75ZM274.134 15.908C273.285 16.7107 272.286 17.112 271.138 17.112C270 17.112 269.057 16.762 268.31 16.062C267.564 15.3527 267.19 14.4053 267.19 13.22C267.19 12.0347 267.568 11.092 268.324 10.392C269.09 9.692 269.99 9.342 271.026 9.342C272.062 9.342 272.94 9.65467 273.658 10.28C274.386 10.9053 274.75 11.764 274.75 12.856V13.976H269.262C269.328 14.3867 269.542 14.7227 269.906 14.984C270.27 15.2453 270.681 15.376 271.138 15.376C271.876 15.376 272.482 15.1287 272.958 14.634L274.134 15.908ZM272.622 12.478C272.576 12.03 272.408 11.6847 272.118 11.442C271.829 11.1993 271.474 11.078 271.054 11.078C270.644 11.078 270.266 11.204 269.92 11.456C269.575 11.708 269.374 12.0487 269.318 12.478H272.622ZM280.427 11.316C279.801 11.316 279.335 11.54 279.027 11.988C278.719 12.4267 278.565 13.01 278.565 13.738V17H276.465V9.468H278.565V10.462C278.835 10.154 279.171 9.89267 279.573 9.678C279.983 9.46333 280.399 9.35133 280.819 9.342L280.833 11.316H280.427ZM282.701 16.832C282.374 16.5987 282.211 16.2953 282.211 15.922C282.211 15.5487 282.337 15.2453 282.589 15.012C282.841 14.7693 283.144 14.648 283.499 14.648C283.853 14.648 284.157 14.7647 284.409 14.998C284.67 15.2313 284.801 15.5067 284.801 15.824C284.801 16.132 284.665 16.5053 284.395 16.944L283.555 18.386H282.169L282.701 16.832ZM35.204 31.214H37.388V35.232L41.084 31.214H43.786L39.894 35.54C40.23 36.0067 40.8507 36.8793 41.756 38.158C42.6613 39.4273 43.338 40.3747 43.786 41H41.238L38.368 37.136L37.388 38.228V41H35.204V31.214ZM51.6575 39.908C50.8081 40.7107 49.8095 41.112 48.6615 41.112C47.5228 41.112 46.5801 40.762 45.8335 40.062C45.0868 39.3527 44.7135 38.4053 44.7135 37.22C44.7135 36.0347 45.0915 35.092 45.8475 34.392C46.6128 33.692 47.5135 33.342 48.5495 33.342C49.5855 33.342 50.4628 33.6547 51.1815 34.28C51.9095 34.9053 52.2735 35.764 52.2735 36.856V37.976H46.7855C46.8508 38.3867 47.0655 38.7227 47.4295 38.984C47.7935 39.2453 48.2041 39.376 48.6615 39.376C49.3988 39.376 50.0055 39.1287 50.4815 38.634L51.6575 39.908ZM50.1455 36.478C50.0988 36.03 49.9308 35.6847 49.6415 35.442C49.3521 35.1993 48.9975 35.078 48.5775 35.078C48.1668 35.078 47.7888 35.204 47.4435 35.456C47.0981 35.708 46.8975 36.0487 46.8415 36.478H50.1455ZM56.0877 36.8V41H53.9877V33.468H56.0877V34.308C56.7224 33.664 57.4364 33.342 58.2297 33.342C59.0231 33.342 59.6857 33.622 60.2178 34.182C60.7591 34.742 61.0297 35.4887 61.0297 36.422V41H58.9297V36.744C58.9297 35.5867 58.5051 35.008 57.6557 35.008C57.2357 35.008 56.8671 35.162 56.5497 35.47C56.2417 35.7687 56.0877 36.212 56.0877 36.8ZM65.5258 34.98V38.354C65.5258 38.6433 65.6004 38.872 65.7498 39.04C65.8991 39.1987 66.0764 39.278 66.2818 39.278C66.6738 39.278 67.0051 39.1007 67.2758 38.746L68.0598 40.216C67.4064 40.8133 66.7158 41.112 65.9878 41.112C65.2691 41.112 64.6578 40.874 64.1538 40.398C63.6591 39.922 63.4118 39.2733 63.4118 38.452V34.98H62.5298V33.468H63.4118V31.214H65.5258V33.468H67.3458V34.98H65.5258ZM74.2438 37.528V33.468H76.3578V41H74.2438V40.006C73.7211 40.7433 73.0445 41.112 72.2138 41.112C71.3925 41.112 70.7018 40.8553 70.1418 40.342C69.5818 39.8193 69.3018 39.0493 69.3018 38.032V33.468H71.4158V37.57C71.4158 38.7273 71.8405 39.306 72.6898 39.306C73.1098 39.306 73.4738 39.1567 73.7818 38.858C74.0898 38.55 74.2438 38.1067 74.2438 37.528ZM82.1529 39.25C82.8529 39.25 83.4829 38.9 84.0429 38.2L85.2889 39.6C84.3182 40.608 83.2682 41.112 82.1389 41.112C81.0095 41.112 80.0529 40.7573 79.2689 40.048C78.4942 39.3293 78.1069 38.396 78.1069 37.248C78.1069 36.0907 78.4989 35.1527 79.2829 34.434C80.0762 33.706 81.0142 33.342 82.0969 33.342C82.6382 33.342 83.1842 33.454 83.7349 33.678C84.2949 33.902 84.7849 34.2333 85.2049 34.672L84.1129 36.1C83.8702 35.8107 83.5715 35.5867 83.2169 35.428C82.8715 35.2693 82.5262 35.19 82.1809 35.19C81.6302 35.19 81.1542 35.372 80.7529 35.736C80.3609 36.0907 80.1649 36.59 80.1649 37.234C80.1649 37.8687 80.3609 38.3633 80.7529 38.718C81.1542 39.0727 81.6209 39.25 82.1529 39.25ZM88.9893 41H86.8893V30.612H88.9893V35.946L91.3273 33.454H93.9733L91.1033 36.506L94.0853 41H91.5933L89.6753 38.116L88.9893 38.83V41ZM96.7175 43.968C95.9802 43.968 95.2848 43.6693 94.6315 43.072L95.5835 41.518C95.9382 41.8633 96.3022 42.036 96.6755 42.036C96.8715 42.036 97.0395 41.938 97.1795 41.742C97.3195 41.5553 97.3895 41.3547 97.3895 41.14C97.3895 40.9253 96.4188 38.368 94.4775 33.468H96.7175L98.5515 38.158L100.385 33.468H102.625L99.1255 42.344C98.9202 42.8573 98.5982 43.254 98.1595 43.534C97.7302 43.8233 97.2495 43.968 96.7175 43.968ZM107.821 33.076V31.214H113.813V32.726L111.811 35.008C112.595 35.1387 113.201 35.47 113.631 36.002C114.06 36.5247 114.275 37.1313 114.275 37.822C114.275 38.8487 113.925 39.656 113.225 40.244C112.534 40.8227 111.647 41.112 110.565 41.112C109.482 41.112 108.385 40.7293 107.275 39.964L108.171 38.228C109.095 38.8813 109.921 39.208 110.649 39.208C111.087 39.208 111.447 39.1007 111.727 38.886C112.016 38.6713 112.161 38.3633 112.161 37.962C112.161 37.5513 111.997 37.2293 111.671 36.996C111.344 36.7533 110.891 36.632 110.313 36.632C110.005 36.632 109.571 36.7207 109.011 36.898V35.288L110.887 33.076H107.821ZM119.092 39.236C119.699 39.236 120.166 39.0353 120.492 38.634C120.828 38.2233 121.034 37.668 121.108 36.968C120.511 37.3693 119.867 37.57 119.176 37.57C118.262 37.57 117.496 37.2713 116.88 36.674C116.274 36.0673 115.97 35.2693 115.97 34.28C115.97 33.2907 116.297 32.4973 116.95 31.9C117.613 31.2933 118.444 30.99 119.442 30.99C120.133 30.99 120.73 31.1253 121.234 31.396C121.748 31.6573 122.149 32.026 122.438 32.502C122.989 33.426 123.264 34.5833 123.264 35.974C123.264 36.87 123.152 37.6587 122.928 38.34C122.714 39.012 122.42 39.544 122.046 39.936C121.281 40.72 120.352 41.112 119.26 41.112C118.803 41.112 118.364 41.0467 117.944 40.916C117.524 40.776 117.207 40.6407 116.992 40.51C116.778 40.37 116.53 40.1927 116.25 39.978L117.342 38.438C117.408 38.494 117.492 38.5687 117.594 38.662C117.706 38.746 117.916 38.8627 118.224 39.012C118.532 39.1613 118.822 39.236 119.092 39.236ZM119.386 35.708C119.825 35.708 120.189 35.582 120.478 35.33C120.768 35.078 120.912 34.7467 120.912 34.336C120.912 33.9253 120.772 33.5707 120.492 33.272C120.212 32.9733 119.862 32.824 119.442 32.824C119.022 32.824 118.677 32.9593 118.406 33.23C118.145 33.4913 118.014 33.8273 118.014 34.238C118.014 34.6487 118.136 34.9987 118.378 35.288C118.621 35.568 118.957 35.708 119.386 35.708ZM128.685 36.772V35.064H130.785V36.772H131.891V38.662H130.785V41H128.685V38.662H124.751V36.996L128.237 31.214H130.617L127.299 36.772H128.685ZM136.527 39.236C137.134 39.236 137.601 39.0353 137.927 38.634C138.263 38.2233 138.469 37.668 138.543 36.968C137.946 37.3693 137.302 37.57 136.611 37.57C135.697 37.57 134.931 37.2713 134.315 36.674C133.709 36.0673 133.405 35.2693 133.405 34.28C133.405 33.2907 133.732 32.4973 134.385 31.9C135.048 31.2933 135.879 30.99 136.877 30.99C137.568 30.99 138.165 31.1253 138.669 31.396C139.183 31.6573 139.584 32.026 139.873 32.502C140.424 33.426 140.699 34.5833 140.699 35.974C140.699 36.87 140.587 37.6587 140.363 38.34C140.149 39.012 139.855 39.544 139.481 39.936C138.716 40.72 137.787 41.112 136.695 41.112C136.238 41.112 135.799 41.0467 135.379 40.916C134.959 40.776 134.642 40.6407 134.427 40.51C134.213 40.37 133.965 40.1927 133.685 39.978L134.777 38.438C134.843 38.494 134.927 38.5687 135.029 38.662C135.141 38.746 135.351 38.8627 135.659 39.012C135.967 39.1613 136.257 39.236 136.527 39.236ZM136.821 35.708C137.26 35.708 137.624 35.582 137.913 35.33C138.203 35.078 138.347 34.7467 138.347 34.336C138.347 33.9253 138.207 33.5707 137.927 33.272C137.647 32.9733 137.297 32.824 136.877 32.824C136.457 32.824 136.112 32.9593 135.841 33.23C135.58 33.4913 135.449 33.8273 135.449 34.238C135.449 34.6487 135.571 34.9987 135.813 35.288C136.056 35.568 136.392 35.708 136.821 35.708ZM148.766 31.214V33.104H144.902V34.742C145.191 34.658 145.523 34.616 145.896 34.616C146.839 34.616 147.651 34.9007 148.332 35.47C149.013 36.0393 149.354 36.8093 149.354 37.78C149.354 38.7413 148.999 39.5393 148.29 40.174C147.59 40.7993 146.722 41.112 145.686 41.112C144.361 41.112 143.255 40.622 142.368 39.642L143.516 38.046C143.6 38.13 143.712 38.2327 143.852 38.354C143.992 38.4753 144.249 38.6387 144.622 38.844C144.995 39.04 145.369 39.138 145.742 39.138C146.115 39.138 146.447 39.026 146.736 38.802C147.025 38.578 147.17 38.2467 147.17 37.808C147.17 37.3693 147.011 37.0333 146.694 36.8C146.386 36.5573 145.985 36.436 145.49 36.436C144.995 36.436 144.421 36.6133 143.768 36.968L142.858 35.988V31.214H148.766Z" fill="white"/>
</g>
<defs>
<clipPath id="clip0_0_510">
<rect width="290" height="48" fill="white"/>
</clipPath>
<clipPath id="clip1_0_510">
<rect width="24" height="29.9997" fill="white" transform="translate(0 9.00024)"/>
</clipPath>
</defs>
</svg>
